<svg xmlns="http://www.w3.org/2000/svg" width="513.8" height="132.5" viewBox="0 0 513.8 132.5"><path d="M513.8 96h-25.7V42.3h23.6v3.5h-20v17.6h18.1V67h-18.1v25.3h22c.1 1.3.1 2.5.1 3.7z"/><path fill="#EC783B" d="M55.3 25.4c24.6 1.3 49.2 22.3 49.5 52.9.3 31-24.6 52.5-49.5 53.8V25.4z"/><path d="M114.4 95.9V42.3c.2-.1.4-.1.6-.1 5.5 0 11 0 16.5.1 3.2.1 6.1 1.1 8.6 3.1 2.4 1.9 3.9 4.3 4 7.3.2 2.7.2 5.4 0 8.1-.1 1.5-.9 2.9-1.6 4.2 0 .1.1.2.1.3 2.5 2.2 3.8 5.1 4.2 8.4.6 4.5.6 8.898-.7 13.3-1.5 5.4-5.5 8.7-11.1 8.8-6.8.2-13.6.1-20.4.1.1.1 0 0-.2 0zm9.6-9.5h10.7c1 0 2-.4 2.3-1.6.8-3.1 1.3-6.2.7-9.5-.4-2.3-1.9-3.5-3.8-4.4-.2-.1-.6-.1-.9 0-2.8.9-5.5 1.8-8.3 2.7-.3.1-.6.5-.6.8-.2 4-.1 7.9-.1 12zm0-34.4v11.8c3.4-1.2 6.6-2.4 9.9-3.6.8-.3 1.1-1 1.1-1.8 0-1-.1-2.1-.1-3.1-.1-2.2-.6-3-2.8-3.2-2.7-.3-5.3-.1-8.1-.1zm193.3 14v29.9h-9.6V42.2h9.1c.1.3.1.5.2.8.2 2.7 1.2 5.2 2.6 7.5 3.7 6.1 7.5 12.2 11.3 18.4.1 0 .2-.1.4-.1V42.3h9.6V96h-9.3c-.1-.8-.1-1.5-.2-2.3-.3-4.4-2.2-8.3-4.3-12.102C324.2 76.4 321 71.5 318 66.4c-.1-.2-.2-.3-.4-.4-.1-.1-.2 0-.3 0zM184.2 96h-9.5c-.1-.6-.1-1.1-.2-1.6-.3-5.5-2.7-10.3-5.2-15.1-.8-1.5-1.6-2.8-2.4-4.3-.3-.6-.7-.7-1.3-.5-1.1.4-2.7.4-3.3 1.2-.6.8-.2 2.3-.2 3.5v16.898h-9.5v-53.8c.1 0 .3-.1.4-.1 5.6.1 11.1 0 16.7.2 3.7.2 6.9 1.7 9.6 4.3 2.2 2.1 3.3 4.6 3.3 7.7 0 2.4.1 4.9-.1 7.3-.3 3.8-2.3 6.7-5.5 8.7-.4.2-.7.5-1.2.7C180.1 78.8 184.4 86.6 184.2 96zm-22-44.3v13.9c3.2-1.1 6.3-2.2 9.3-3.3 1-.4 1.5-1.2 1.5-2.2v-4.5c0-1.8-.3-2.3-2-3-2.8-1.3-5.7-.8-8.8-.9zm62.3 17.2c-.1 3.6-.2 8.4-.4 13.2-.4 8.4-5.7 13.9-14.1 14.6-3.6.3-7.2.2-10.7-1-5.7-2.1-9-6.3-9.4-12.3-.5-7.2-.4-14.5-.4-21.7 0-2.7.1-5.5.5-8.2 1.1-6.9 5.4-10.9 12.3-11.9 3.3-.5 6.6-.4 9.9.2 7.1 1.3 11.5 6.4 11.9 13.6.2 4.1.2 8.2.4 13.5zm-25.7.6c.2 3.9.3 8.3.6 12.8.2 2.7 1.6 4.2 4.3 4.6 1.9.3 3.8.3 5.7.2 3.6-.3 4.9-1.8 5.2-5.5.1-1.9.3-3.8.2-5.7 0-6.6-.1-13.1-.3-19.7-.1-2.9-1.4-4.5-4-4.9-2.1-.3-4.2-.4-6.3-.2-3.5.3-4.6 1.5-4.8 5.1-.3 4.1-.4 8.4-.6 13.3zm56.9-1.8c4.9 8.9 10.3 17.5 10.2 28.2-.3 0-.6.1-.8.1h-7.7c-.5 0-1.1.1-1.1-.7 0-5.8-2.5-10.8-5.1-15.7-1.4-2.7-3-5.3-4.5-8-1.6.6-3.2 1.2-4.6 1.8-.3.1-.5.8-.5 1.2v21.3h-9.5V42.2h9.5v21.1c3.1-1.3 6-2.5 8.8-3.8 1.8-.9 2.5-2.6 2.5-4.5.1-3.8 0-7.5.1-11.3v-1.5h9.5c0 .1.1.3.1.5 0 4.2.102 8.3-.1 12.5-.2 5-2.3 9.2-6.4 12.1l-.4.4zM301.4 96h-28.8V42.2h27.2v9.5h-17.6V61h16v9.6h-16v15.9h19.2V96zm149.7 0h-3.5c-.2-1.7-.4-3.3-.7-5-.8-3.8-1.8-7.6-2.7-11.4-.1-.3-.6-.8-.9-.8H422c-1.2 5.7-2.4 11.4-3.6 17.2H415c.2-1.8.3-3.6.6-5.3 1.8-10.9 5.4-21.3 9.102-31.6 1.898-5.3 4-10.5 5.898-15.7.3-.8.7-1.1 1.5-1.1 2.7.1 2.7 0 3.7 2.6 4.8 12.1 9.5 24.2 12.7 36.8 1.1 4.3 1.7 8.8 2.5 13.2.1.2.1.6.1 1.1zm-17.9-48.9c-.1 0-.3.1-.4.1-3.5 9.1-6.8 18.4-9.6 27.8h19.7c-3.2-9.4-6.5-18.6-9.7-27.9zm-81.9-4.8h13.6c3.2 0 6.2 1 8.8 2.9 2.3 1.7 3.8 3.8 4 6.7.2 2.5.4 5 .4 7.5-.102 3.9-2 6.9-5.5 8.5-3.3 1.5-6.7 2.5-10.102 3.6-2.5.8-5 1.5-7.6 2.2v22.2h-3.6c.002-17.8.002-35.7.002-53.6zm3.6 27.6c2.9-.9 5.7-1.6 8.5-2.5 2.2-.7 4.4-1.4 6.6-2.3 2.3-.9 4.2-2.4 4.3-5 .2-2.7.1-5.4-.3-8.1-.2-1.2-1.1-2.6-2-3.4-1.3-1-2.9-1.6-4.4-2.2-.7-.3-1.5-.3-2.2-.4h-10.3c-.2 7.9-.2 15.8-.2 23.9zM471.7 96H468V46.1h-11.6v-3.7h27v3.7h-11.6c-.1 16.6-.1 33.2-.1 49.9zm-62.6-3.6v3.5h-25.6V42.3h3.6v50.1h22z"/><path fill="#EC783B" d="M50.4 106.7C25.8 105.4 1.2 84.4.9 53.8.7 22.8 25.5 1.3 50.4 0v106.7z"/></svg>